<svg width="11" height="12" viewBox="0 0 11 12" fill="none" xmlns="http://www.w3.org/2000/svg">
<path fill-rule="evenodd" clip-rule="evenodd" d="M4.64379 11.1211C4.57506 11.0525 4.52053 10.9711 4.48333 10.8814C4.44613 10.7918 4.42698 10.6957 4.42698 10.5986C4.42698 10.5015 4.44613 10.4054 4.48333 10.3157C4.52053 10.2261 4.57506 10.1446 4.64379 10.0761L8.55479 6.16908L4.64379 2.26108C4.57358 2.19282 4.51763 2.11129 4.4792 2.02122C4.44078 1.93115 4.42063 1.83434 4.41994 1.73642C4.41925 1.6385 4.43803 1.54142 4.47518 1.45082C4.51234 1.36022 4.56713 1.27791 4.63637 1.20866C4.70561 1.13942 4.78793 1.08463 4.87853 1.04747C4.96913 1.01032 5.06621 0.991542 5.16413 0.992232C5.26205 0.992922 5.35886 1.01307 5.44893 1.0515C5.539 1.08992 5.62053 1.14587 5.68879 1.21608L10.1178 5.64508C10.1865 5.71363 10.241 5.79507 10.2782 5.88473C10.3154 5.97439 10.3346 6.07051 10.3346 6.16758C10.3346 6.26465 10.3154 6.36077 10.2782 6.45043C10.241 6.54009 10.1865 6.62153 10.1178 6.69008L5.68979 11.1211C5.62123 11.1898 5.5398 11.2443 5.45014 11.2815C5.36048 11.3187 5.26436 11.3379 5.16729 11.3379C5.07022 11.3379 4.9741 11.3187 4.88444 11.2815C4.79478 11.2443 4.71234 11.1898 4.64379 11.1211Z" fill="#2467EC"/>
<path fill-rule="evenodd" clip-rule="evenodd" d="M0 6.16923C0 5.9735 0.0777532 5.78578 0.216155 5.64738C0.354557 5.50898 0.54227 5.43123 0.738 5.43123H8.12C8.31573 5.43123 8.50344 5.50898 8.64185 5.64738C8.78025 5.78578 8.858 5.9735 8.858 6.16923C8.858 6.36496 8.78025 6.55267 8.64185 6.69107C8.50344 6.82947 8.31573 6.90723 8.12 6.90723L0.738 6.90723C0.54227 6.90723 0.354557 6.82947 0.216155 6.69107C0.0777532 6.55267 0 6.36496 0 6.16923Z" fill="#2467EC"/>
</svg>
