<?xml version="1.0" encoding="iso-8859-1"?>
<!-- Generator: Adobe Illustrator 19.0.0, SVG Export Plug-In . SVG Version: 6.00 Build 0)  -->
<svg version="1.1" id="Capa_1" xmlns="http://www.w3.org/2000/svg" xmlns:xlink="http://www.w3.org/1999/xlink" x="0px" y="0px"
	 viewBox="0 0 512 512" style="enable-background:new 0 0 512 512;" xml:space="preserve">
<path style="fill:#303C42;" d="M423.542,333.792c-4.167-4.167-10.917-4.167-15.083,0L266.667,475.583V10.667
	C266.667,4.771,261.896,0,256,0c-5.896,0-10.667,4.771-10.667,10.667v464.917L103.542,333.792c-4.167-4.167-10.917-4.167-15.083,0
	c-4.167,4.167-4.167,10.917,0,15.083l160,160c2.083,2.083,4.813,3.125,7.542,3.125c2.729,0,5.458-1.042,7.542-3.125l160-160
	C427.708,344.708,427.708,337.958,423.542,333.792z"/>
<linearGradient id="SVGID_1_" gradientUnits="userSpaceOnUse" x1="-39.7859" y1="636.8537" x2="-26.5569" y2="630.6871" gradientTransform="matrix(21.3333 0 0 -21.3333 996.3334 13791.667)">
	<stop  offset="0" style="stop-color:#FFFFFF;stop-opacity:0.2"/>
	<stop  offset="1" style="stop-color:#FFFFFF;stop-opacity:0"/>
</linearGradient>
<path style="fill:url(#SVGID_1_);" d="M423.542,333.792c-4.167-4.167-10.917-4.167-15.083,0L266.667,475.583V10.667
	C266.667,4.771,261.896,0,256,0c-5.896,0-10.667,4.771-10.667,10.667v464.917L103.542,333.792c-4.167-4.167-10.917-4.167-15.083,0
	c-4.167,4.167-4.167,10.917,0,15.083l160,160c2.083,2.083,4.813,3.125,7.542,3.125c2.729,0,5.458-1.042,7.542-3.125l160-160
	C427.708,344.708,427.708,337.958,423.542,333.792z"/>
<g>
</g>
<g>
</g>
<g>
</g>
<g>
</g>
<g>
</g>
<g>
</g>
<g>
</g>
<g>
</g>
<g>
</g>
<g>
</g>
<g>
</g>
<g>
</g>
<g>
</g>
<g>
</g>
<g>
</g>
</svg>
