<svg width="211" height="71" viewBox="0 0 211 71" fill="none" xmlns="http://www.w3.org/2000/svg">
<g clip-path="url(#clip0_31_437)">
<mask id="mask0_31_437" style="mask-type:luminance" maskUnits="userSpaceOnUse" x="0" y="0" width="62" height="71">
<path d="M61.6726 0.666992H0V71.0004H61.6726V0.666992Z" fill="white"/>
</mask>
<g mask="url(#mask0_31_437)">
<path d="M55.8567 26.2078C55.8567 40.0393 44.6473 51.2487 30.8159 51.2487C16.9847 51.2487 5.7832 40.0314 5.7832 26.2078C5.7832 12.3844 16.9928 1.16699 30.8159 1.16699C44.6392 1.16699 55.8567 12.3765 55.8567 26.2078Z" fill="#1B2F52" stroke="#CEAA63"/>
<path d="M41.8647 9.04184C41.9547 8.91916 42.0201 8.95187 42.1019 9.00912C42.1755 9.06637 43.5658 10.105 43.6394 10.1704C43.713 10.2277 43.7212 10.2931 43.6722 10.3585C43.6231 10.424 42.7725 11.6998 42.7316 11.7489C42.6908 11.7979 42.658 11.8633 42.5108 11.7489C42.3636 11.6344 41.1532 10.702 41.0387 10.6202C40.9242 10.5385 40.8997 10.4403 40.957 10.3504C41.0142 10.2686 41.8647 9.03366 41.8647 9.03366" fill="#CEAA63"/>
<path d="M32.3289 16.075C32.4188 15.9524 32.4843 15.9851 32.566 16.0423C32.6396 16.0996 34.0299 17.1382 34.1036 17.2036C34.1772 17.2609 34.1853 17.3263 34.1363 17.3917C34.0872 17.4572 33.2367 18.733 33.1958 18.7821C33.1549 18.8311 33.1222 18.8966 32.9749 18.7821C32.8277 18.6676 31.6174 17.7352 31.5029 17.6535C31.3884 17.5717 31.3638 17.4735 31.4211 17.3836C31.4783 17.3018 32.3289 16.0669 32.3289 16.0669" fill="#CEAA63"/>
<path d="M16.1768 20.1151C16.2667 19.9924 16.3321 20.0251 16.4139 20.0824C16.4875 20.1396 17.8778 21.1783 17.9515 21.2437C18.0251 21.3009 18.0332 21.3664 17.9842 21.4318C17.9351 21.4972 17.0846 22.773 17.0437 22.8221C17.0028 22.8712 16.9701 22.9366 16.8228 22.8221C16.6756 22.7076 15.4653 21.7753 15.3508 21.6935C15.2363 21.6117 15.2117 21.5136 15.269 21.4236C15.3262 21.3418 16.1768 20.1069 16.1768 20.1069" fill="#CEAA63"/>
<path d="M13.3716 20.4422C13.4615 20.3196 13.527 20.3523 13.6088 20.4095C13.6824 20.4668 15.0727 21.5054 15.1463 21.5708C15.2199 21.6281 15.2281 21.6935 15.179 21.7589C15.1299 21.8244 14.2794 23.1002 14.2385 23.1492C14.1976 23.1983 14.1649 23.2637 14.0177 23.1492C13.8705 23.0347 12.6601 22.1024 12.5456 22.0206C12.4311 21.9389 12.4065 21.8407 12.4638 21.7508C12.521 21.669 13.3716 20.434 13.3716 20.434" fill="#CEAA63"/>
<path d="M24.3633 40.1356C24.4532 40.0129 24.5187 40.0456 24.6005 40.1029C24.6741 40.1601 26.0644 41.1988 26.138 41.2642C26.2116 41.3214 26.2198 41.3869 26.1707 41.4523C26.1216 41.5177 25.2711 42.7935 25.2302 42.8426C25.1893 42.8917 25.1566 42.9571 25.0094 42.8426C24.8622 42.7281 23.6518 41.7958 23.5373 41.714C23.4228 41.6322 23.3982 41.5341 23.4555 41.4441C23.5127 41.3623 24.3633 40.1274 24.3633 40.1274" fill="#CEAA63"/>
<path d="M21.5254 40.4383C21.6154 40.3156 21.6808 40.3484 21.7626 40.4056C21.8362 40.4629 23.2265 41.5015 23.3001 41.5669C23.3737 41.6242 23.3819 41.6896 23.3328 41.755C23.2837 41.8205 22.4332 43.0963 22.3923 43.1453C22.3514 43.1944 22.3187 43.2598 22.1715 43.1453C22.0243 43.0308 20.8139 42.0985 20.6994 42.0167C20.5849 41.9349 20.5604 41.8368 20.6176 41.7468C20.6749 41.6651 21.5254 40.4301 21.5254 40.4301" fill="#CEAA63"/>
<path d="M43.7702 10.9958C43.8438 10.8976 43.8765 10.8976 43.9583 10.9549C44.0401 11.0121 45.3241 12.0671 45.3895 12.108C45.4549 12.1571 45.4877 12.247 45.4222 12.337C45.3568 12.4188 44.4572 13.5474 44.3918 13.6292C44.3263 13.7028 44.2773 13.6864 44.1955 13.6292C44.1219 13.5719 42.9197 12.6151 42.8624 12.5578C42.8052 12.5006 42.707 12.4351 42.7888 12.3288C42.8706 12.2225 43.7702 10.9876 43.7702 10.9876" fill="#CEAA63"/>
<path d="M39.8938 12.5666C39.8202 12.6648 39.8121 12.7466 39.9266 12.8202C40.041 12.8938 41.2514 13.7934 41.3741 13.8588C41.4968 13.9242 41.4641 13.9897 41.5867 13.8261C41.7094 13.6625 42.5273 12.5993 42.5927 12.5176C42.6581 12.4358 42.6172 12.3867 42.4945 12.3049C42.3719 12.2231 41.1206 11.2745 41.0388 11.2254C40.957 11.1681 40.9243 11.1436 40.8507 11.2254C40.7771 11.3072 39.8938 12.5666 39.8938 12.5666Z" fill="#CEAA63"/>
<path d="M30.546 34.1817C30.9059 32.9059 31.5602 31.4093 32.3044 30.4442C33.4657 28.9476 34.9214 27.4592 39.2478 26.1997C40.1637 25.9298 42.6908 25.2101 42.8626 25.1447C43.0261 25.0875 43.0343 25.0139 43.0834 24.9075C43.1324 24.8094 43.6231 23.8198 43.6722 23.6726C43.7213 23.5336 43.6559 23.4763 43.5332 23.5009C43.4105 23.5254 40.679 23.5172 39.992 23.5172C39.305 23.5172 38.2009 23.5009 37.4485 23.4927C36.6961 23.4845 34.4798 23.4682 34.1936 23.4763C33.9073 23.4845 33.4003 23.4436 33.3185 23.4518C34.259 22.7566 35.1668 22.2414 35.9764 20.8756C36.7861 19.5099 37.4485 18.1441 37.9065 18.0705C38.2255 18.0214 38.2909 18.4549 38.3236 18.5775C38.6344 19.7552 40.6953 21.121 42.7154 17.7433C42.7562 17.6697 42.8299 17.5961 42.838 17.6452C42.7562 19.3708 45.8068 20.2623 46.4856 18.1441C46.7473 17.3344 46.8699 16.9173 46.9354 16.2467C47.0008 15.5761 46.4447 14.6356 46.3383 14.5047C46.232 14.3657 46.1911 14.4557 46.1502 14.6029C46.1339 14.6601 45.7495 15.9441 45.7168 16.0259C45.6841 16.1159 45.6677 16.2222 45.7495 16.3367C45.7495 16.3367 46.1093 16.7701 46.232 17.3017C46.0194 17.5716 44.4655 17.6943 43.7295 16.8028C43.5414 16.5738 43.8194 16.1486 43.8521 15.985C43.9176 15.7069 43.8685 15.5434 43.7949 15.4943C43.6559 15.388 43.5414 15.5107 43.4187 15.6252C43.0098 15.9932 42.8953 16.3285 42.6172 16.672C42.1511 17.2445 41.4395 18.2259 40.0083 17.9314C39.6321 17.8497 39.0106 17.4407 38.9942 16.8192C38.9697 16.124 38.3236 16.0668 38.021 16.3612C37.2032 17.1463 36.9905 17.8006 36.5489 18.5039C35.5184 20.1396 34.5698 21.0392 32.2635 22.315C31.7728 22.5849 31.233 22.912 30.6278 23.1901L30.5788 23.2146C30.4152 23.3128 30.3171 23.2882 30.2762 23.7462C30.2353 24.2042 30.0063 24.6622 29.9327 24.8503C29.8591 25.0384 29.72 25.2428 30.0063 25.2265C30.3007 25.2183 30.6605 25.1856 30.8077 25.1856C30.955 25.1856 31.3475 25.2347 31.7891 25.2265C32.2308 25.2265 33.7928 25.2592 34.2181 25.2428C34.6434 25.2265 37.6939 25.1938 37.6939 25.1938C36.369 25.5782 33.5393 26.9276 31.5929 29.9208C30.8486 31.0658 30.2189 32.4725 29.9245 34.1245C29.7446 35.2858 29.7119 36.5698 29.8591 38.001C30.1289 40.5853 32.6806 45.3042 39.166 42.6544C45.6514 40.0047 45.1607 34.3289 45.038 33.781C44.7845 32.6933 44.122 31.81 43.9421 31.671C43.844 31.5892 43.8521 31.6219 43.8358 31.7037C43.8194 31.7855 43.5741 33.2739 43.5577 33.3639C43.5414 33.4457 43.525 33.4702 43.5741 33.5438C43.6231 33.6256 44.6454 35.3758 44.441 36.2345C44.1629 37.3713 39.7957 42.2701 35.3549 41.4931C34.3571 41.3214 30.5788 40.7162 30.3907 35.3512C30.3825 35.0323 30.4234 34.6315 30.5297 34.1736" fill="#CEAA63"/>
<path d="M32.8031 37.036C32.6068 37.3059 32.3942 37.4449 32.525 36.9215C32.6559 36.3981 32.9012 36.1528 33.3919 35.1305C34.128 33.5848 36.7041 30.4443 38.7487 29.3975C40.0164 28.7432 40.8669 28.6942 41.9792 29.2258C43.0914 29.7492 43.6721 30.5179 43.6312 31.2376C43.5903 31.9655 43.5657 32.5952 43.4431 33.0941C43.3204 33.593 43.165 34.1491 43.0423 34.3699C42.7234 34.9669 40.6297 36.9297 37.751 37.2568C36.3525 37.4204 34.6023 37.5758 33.0812 36.2427C32.4678 35.703 32.0425 34.877 32.018 34.5008C31.9934 34.0182 31.8135 34.0755 31.5518 34.4762C31.1593 35.0978 30.186 37.3795 28.1987 37.2487C26.8493 37.1587 26.4731 35.9565 26.5058 35.3758C26.514 35.1959 26.514 35.0405 26.3177 35.1141C26.0069 35.2286 24.0278 36.6762 23.1282 36.9951C22.0813 37.3713 19.6197 37.6739 18.1231 35.9647C16.7082 34.3372 16.79 31.7365 16.7818 31.6629C16.7818 31.6056 16.7491 31.4503 16.7164 31.6629C16.6428 32.0227 16.5283 32.6197 16.4383 32.7915C15.3261 34.9015 12.3165 35.3431 11.4741 34.2963C11.0243 33.732 12.1202 31.5157 12.3737 31.1231C12.8153 30.4525 13.6168 29.4793 14.8926 28.6533C16.1684 27.8273 17.9513 26.4778 18.3602 26.1589C18.7691 25.8399 19.3171 25.4147 19.5052 25.2593C19.6851 25.1039 19.636 25.292 19.5624 25.4065C19.4888 25.521 19.3253 25.7336 19.2435 25.889C19.1617 26.0444 18.9245 26.486 18.8591 26.6005C18.7937 26.7068 18.5074 27.0912 18.0903 27.4511C17.6732 27.8109 17.3543 28.138 16.8718 28.4652C16.3893 28.8005 15.3261 29.5611 15.0889 29.7492C14.8436 29.9373 14.1648 30.3707 13.4532 31.025C12.7417 31.6874 12.3655 32.1209 12.2674 32.3253C12.1693 32.538 12.2101 32.6034 12.3083 32.6688C12.4064 32.7342 14.0993 33.6747 16.2829 32.0636C16.422 31.9573 16.3893 31.9655 16.3893 31.7283C16.3893 31.4911 16.3647 30.6324 16.2911 29.6265C16.2175 28.6206 16.0703 27.2384 15.8331 26.257C15.8086 26.1507 15.7841 26.1344 15.825 26.0608C15.8658 25.979 16.1275 25.3083 16.2829 24.5641C16.3156 24.4006 16.4629 24.4987 16.5037 24.5641C16.6182 24.7522 17.158 25.8808 17.3706 27.5083C17.4688 28.2771 17.526 30.4198 17.5342 30.6324C17.5424 30.8451 17.4443 32.9551 18.4829 34.0591C19.5297 35.1632 20.4457 35.4658 22.1958 35.3922C24.2895 35.3022 25.6798 33.8383 26.6121 33.364C26.8657 33.2331 27.0865 33.1513 27.2337 33.2985C27.4545 33.5194 26.9883 34.0264 27.1355 34.3781C27.3318 34.8524 27.7162 35.4985 29.0574 35.3022C30.3905 35.1059 31.1265 33.822 31.2574 33.6339C31.3883 33.4376 32.0343 32.1045 32.4678 32.2517C32.6968 32.3335 32.4678 32.9714 32.7131 33.3313C33.1466 33.9855 33.6782 34.7297 34.6841 35.1141C36.4424 35.8011 40.319 35.4658 42.6334 33.4621L42.6825 33.4049C42.8461 33.2577 42.9442 33.0941 42.9851 33.0287C43.0178 32.9632 43.0342 32.9469 43.0096 32.8487C42.9933 32.7506 42.7643 32.0309 42.1264 31.5811C41.0877 30.8451 39.4929 29.9209 37.3175 31.7201C36.0662 32.7506 35.7146 33.1513 35.183 33.7974C34.5369 34.5825 33.8908 35.384 33.6618 35.7929C33.441 36.2018 32.844 36.9788 32.7949 37.0442" fill="#CEAA63"/>
<path d="M31.1592 11.9284C31.3228 11.9775 31.6745 12.0756 31.5191 12.3782C31.4046 12.599 30.9466 13.3024 30.3659 13.9321C30.1288 14.1938 29.8425 14.4228 29.5972 14.6273C29.1964 14.9626 29.0247 15.0771 28.7303 15.1425C28.3132 15.2325 26.6939 15.4778 26.5467 15.5105C26.3995 15.5432 26.2931 15.5432 26.4894 15.3551C26.6857 15.167 28.1905 14.4964 28.4113 14.3819C28.624 14.2756 29.5563 13.8012 29.728 13.6704C29.8998 13.5395 29.8016 13.4905 29.728 13.4741C29.6462 13.4578 28.6485 13.2942 28.2641 13.2778C27.8797 13.2615 26.9801 13.3106 26.7675 13.4169C26.5548 13.5232 26.5058 13.3106 26.5794 13.2042C26.653 13.0979 27.3154 12.0347 27.3727 11.9448C27.4463 11.8303 27.4545 11.8057 27.618 11.7567C27.7816 11.7158 28.7712 11.3968 31.1674 11.9366" fill="#CEAA63"/>
<path d="M27.5283 28.6694C26.9313 29.1601 26.0317 28.5795 25.999 27.2791C25.999 27.0665 25.8027 26.1996 25.77 26.0033C25.7536 25.8724 25.5655 25.8806 25.541 26.0033C25.4837 26.3059 25.3692 26.5512 25.3038 26.7312C25.2384 26.9193 25.2956 27.0092 25.3692 27.2055C25.4428 27.4018 25.5573 28.4404 25.4592 28.7757C25.3774 29.0456 25.1157 29.2337 24.7559 29.2582C24.4042 29.2828 24.1098 29.0129 24.0852 28.5058C24.0689 28.1051 24.0443 27.8761 24.0443 27.5899C24.0443 26.9193 23.8153 26.5758 23.799 26.5512C23.7336 26.4776 23.7172 26.5758 23.6927 26.7066C23.6681 26.8129 23.4473 27.1646 23.3819 27.4018C23.3655 27.459 23.3983 27.5244 23.4146 27.5572C23.6518 28.007 23.6109 28.465 23.6272 28.6939C23.6354 28.882 23.6272 29.34 23.6681 29.569C23.709 29.798 23.8317 29.9452 23.9626 30.0761C24.0852 30.1988 24.4369 30.4359 24.9685 30.1088C25.5083 29.7735 25.7209 28.9229 25.7209 28.882C25.7209 28.8412 25.7618 28.8412 25.77 28.8984C25.7781 28.9557 25.9335 29.5363 26.4324 29.7898C26.9313 30.0434 27.2421 29.7489 27.3647 29.6344C27.4874 29.52 27.6183 29.2255 27.7655 28.9802C27.9127 28.7267 27.9781 28.3341 27.9945 28.0479C28.0108 27.7616 27.7328 27.1319 27.561 26.8129C27.3974 26.5103 27.2829 26.2568 27.2421 25.9951C27.2175 25.8315 27.0948 25.897 27.0785 26.0196C27.054 26.1669 26.9149 26.6657 26.8904 26.7393C26.874 26.8129 26.8659 26.8456 26.8822 26.9193C26.8986 26.9929 26.9313 27.1237 27.0131 27.3445C27.0867 27.5653 27.2829 27.8761 27.3647 28.0888C27.4465 28.3014 27.5201 28.4241 27.5447 28.5058C27.5855 28.6203 27.5855 28.6367 27.5365 28.6776" fill="#CEAA63"/>
<path d="M22.2286 17.5309C22.2613 17.3755 22.3104 17.3755 22.4004 17.4491C22.4985 17.5228 23.4963 18.3079 24.2323 19.6655C25.6635 22.2907 25.0256 24.6052 24.8211 24.965C24.6167 25.3248 24.6494 25.0386 24.6657 24.9159C24.6821 24.7933 24.862 23.0431 24.4368 21.8736C24.0115 20.6959 23.4472 19.6491 22.1632 18.5123C22.0487 18.4142 22.0732 18.3651 22.0978 18.2588C22.1223 18.1443 22.2286 17.5391 22.2286 17.5391" fill="#CEAA63"/>
</g>
</g>
<path d="M67.9399 10.4993C68.4281 10.4993 68.9539 10.5557 69.5172 10.6874C70.0805 10.8191 70.4185 10.8756 70.5311 10.8756C70.794 10.8756 71.0005 10.7815 71.1508 10.6122C70.963 10.9885 70.8315 11.4588 70.794 12.0421C70.7564 12.4937 70.7377 12.9641 70.7377 13.4344C70.7377 13.5097 70.7001 13.5661 70.6062 13.5661C70.5311 13.5661 70.4936 13.5285 70.4936 13.4344C70.4936 12.9829 70.3246 12.5501 69.9866 12.1738C69.4045 11.4965 68.6722 11.1578 67.7522 11.1578C67.2264 11.1578 66.7946 11.3083 66.4566 11.5906C66.1186 11.8728 65.9496 12.2679 65.9496 12.7571C65.9496 13.2463 66.1374 13.679 66.4941 14.0741C66.8509 14.4693 67.4517 14.9396 68.2779 15.4853C70.1744 16.7271 71.1132 18.063 71.1132 19.4553C71.1132 20.4148 70.7564 21.2051 70.0242 21.826C69.3106 22.4469 68.4094 22.7479 67.3766 22.7479C66.757 22.7479 66.1374 22.635 65.5177 22.4092C64.8981 22.1835 64.5226 22.0706 64.4099 22.0706C64.1283 22.0706 63.9217 22.1458 63.7903 22.2775C64.0156 21.7319 64.1846 21.2615 64.2597 20.8288C64.3536 20.2267 64.4099 19.6811 64.4099 19.1919C64.4099 19.1166 64.4475 19.0602 64.5414 19.0602C64.6352 19.0602 64.6728 19.0978 64.6728 19.1919C64.6728 19.7563 64.8042 20.2643 65.0859 20.6971C65.3112 21.0357 65.6304 21.3556 66.0623 21.619C66.4941 21.8824 66.9823 22.0141 67.5456 22.0141C68.1089 22.0141 68.5971 21.8448 68.9539 21.5249C69.3106 21.2051 69.4984 20.7723 69.4984 20.2455C69.4984 19.6622 69.2919 19.1354 68.86 18.6462C68.4281 18.157 67.8085 17.649 67.0011 17.1222C66.081 16.5201 65.4051 15.9368 64.992 15.3724C64.5789 14.8079 64.3536 14.1682 64.3536 13.4156C64.3536 12.5125 64.7103 11.7975 65.4239 11.2707C66.1374 10.7439 66.9823 10.4805 67.9775 10.4805" fill="#CEAA63"/>
<path d="M78.4335 22.6712C78.044 22.6712 77.6156 22.6712 77.1872 22.7096C76.7589 22.7287 76.5057 22.7479 76.4278 22.7479H76.3305C76.1358 22.7479 76.0579 22.7096 76.0579 22.6137C76.0579 22.5371 76.1163 22.4987 76.2331 22.4987H76.2915C76.7004 22.4987 77.012 22.3071 77.2262 21.9045C77.4209 21.5595 77.4988 20.3328 77.4988 18.2051V15.0041C77.4988 12.8765 77.4014 11.6497 77.2262 11.3047C77.012 10.9022 76.7004 10.7105 76.2915 10.7105H76.2331C76.1163 10.7105 76.0579 10.6721 76.0579 10.6146C76.0579 10.538 76.1747 10.4805 76.3694 10.4805H76.4084C76.4084 10.4805 76.7394 10.4805 77.1678 10.5188C77.5962 10.5571 78.0245 10.5571 78.414 10.5571C78.8034 10.5571 79.2123 10.5571 79.6407 10.5188C80.0691 10.4996 80.3223 10.4805 80.4001 10.4805H80.4391C80.6533 10.4805 80.7701 10.5188 80.7701 10.6146C80.7701 10.6913 80.7117 10.7105 80.5949 10.7105H80.5365C80.1275 10.7105 79.816 10.9022 79.6018 11.3047C79.4071 11.6497 79.3292 12.8765 79.3292 15.0041V15.7708C79.7965 15.7708 80.9259 15.79 82.6979 15.79C84.4698 15.79 85.4434 15.79 85.8913 15.7708V15.0041C85.8913 12.8765 85.7939 11.6497 85.6187 11.3047C85.4045 10.9022 85.0929 10.7105 84.684 10.7105H84.6256C84.5088 10.7105 84.4504 10.6721 84.4504 10.6146C84.4504 10.538 84.5477 10.4805 84.7619 10.4805H84.8009C84.8009 10.4805 85.1319 10.4805 85.5603 10.5188C85.9887 10.5571 86.417 10.5571 86.8065 10.5571C87.1959 10.5571 87.6048 10.5571 88.0332 10.5188C88.4616 10.4996 88.7148 10.4805 88.7732 10.4805H88.8121C89.0263 10.4805 89.1431 10.5188 89.1431 10.6146C89.1431 10.6913 89.0847 10.7105 88.9679 10.7105H88.9095C88.5006 10.7105 88.189 10.9022 87.9748 11.3047C87.7801 11.6497 87.7022 12.8765 87.7022 15.0041V18.2051C87.7022 20.3328 87.7996 21.5595 87.9748 21.9045C88.189 22.3071 88.5006 22.4987 88.9095 22.4987H88.9679C89.0847 22.4987 89.1431 22.5371 89.1431 22.6137C89.1431 22.6904 89.0458 22.7479 88.8121 22.7479H88.7732C88.7732 22.7479 88.4616 22.7479 88.0332 22.7096C87.6048 22.6904 87.1959 22.6712 86.8065 22.6712C86.417 22.6712 85.9887 22.6712 85.5603 22.7096C85.1319 22.7287 84.8787 22.7479 84.8203 22.7479H84.7035C84.5088 22.7479 84.4309 22.7096 84.4309 22.6137C84.4309 22.5371 84.4893 22.4987 84.6061 22.4987H84.6645C85.0735 22.4987 85.385 22.3071 85.5992 21.9045C85.7939 21.5595 85.8718 20.3328 85.8718 18.2051V16.6525C85.3266 16.6525 84.2556 16.6334 82.6589 16.6334C80.9648 16.6334 79.8355 16.6334 79.3097 16.6525V18.2051C79.3097 20.3328 79.4071 21.5595 79.5823 21.9045C79.7965 22.3071 80.1081 22.4987 80.517 22.4987H80.5754C80.6922 22.4987 80.7506 22.5371 80.7506 22.6137C80.7506 22.6904 80.6338 22.7479 80.4196 22.7479H80.3807C80.3807 22.7479 80.0497 22.7479 79.6213 22.7096C79.1929 22.6904 78.784 22.6712 78.3945 22.6712" fill="#CEAA63"/>
<path d="M97.7599 10.4805H97.8197C97.8197 10.4805 98.1588 10.4805 98.5578 10.5189C98.9567 10.5574 99.3157 10.5574 99.595 10.5574C100.273 10.5574 100.672 10.5381 100.812 10.4997C101.051 11.3842 101.849 13.3839 103.245 16.4796C104.682 19.6714 105.559 21.4596 105.898 21.8634C106.237 22.3057 106.596 22.5172 106.955 22.5172C107.075 22.5172 107.135 22.5556 107.135 22.5941C107.135 22.6902 107.055 22.7479 106.876 22.7479C106.876 22.7479 106.616 22.7479 106.158 22.7095C105.699 22.671 105.26 22.671 104.821 22.671C104.442 22.671 103.983 22.671 103.445 22.7095C102.906 22.7287 102.607 22.7479 102.587 22.7479C102.427 22.7479 102.348 22.7095 102.348 22.6133C102.348 22.5364 102.408 22.498 102.507 22.498C103.006 22.498 103.245 22.2288 103.245 21.6904C103.245 21.2674 102.806 20.056 101.929 18.0755C101.39 18.0563 100.493 18.0371 99.236 18.0371C98.1588 18.0371 97.4008 18.0371 97.0019 18.0563C96.0843 20.1906 95.6255 21.4212 95.6255 21.7481C95.6255 22.248 95.9048 22.498 96.4833 22.498C96.583 22.498 96.6428 22.5364 96.6428 22.5941C96.6428 22.6902 96.5631 22.7479 96.3835 22.7479C96.3037 22.7479 96.0444 22.7479 95.6455 22.7095C95.2465 22.671 94.8875 22.671 94.6082 22.671C94.2891 22.671 93.93 22.671 93.5112 22.7095C93.1122 22.7287 92.8728 22.7479 92.7731 22.7479C92.5337 22.7479 92.4141 22.6902 92.4141 22.5941C92.4141 22.5172 92.4739 22.498 92.6135 22.498C93.0324 22.498 93.5112 22.1326 94.0497 21.4212C94.5085 20.7674 95.3263 19.21 96.5431 16.7296C97.6601 14.4414 98.458 12.7301 98.9368 11.5765C98.6176 11.0189 98.1788 10.7304 97.6402 10.7304C97.5205 10.7304 97.4607 10.692 97.4607 10.6343C97.4607 10.5381 97.5604 10.4805 97.7798 10.4805M99.2559 17.2487C100.433 17.2487 101.191 17.2487 101.55 17.2295C100.692 15.1913 100.014 13.6723 99.4753 12.6532L97.3609 17.2295C97.7399 17.2295 98.3583 17.2487 99.236 17.2487" fill="#CEAA63"/>
<path d="M113.534 22.6712C113.155 22.6712 112.739 22.6712 112.322 22.7096C111.906 22.7287 111.66 22.7479 111.584 22.7479H111.489C111.3 22.7479 111.224 22.7096 111.224 22.6137C111.224 22.5371 111.281 22.4987 111.395 22.4987H111.452C111.849 22.4987 112.152 22.3071 112.36 21.9045C112.55 21.5595 112.625 20.3328 112.625 18.2051V15.0041C112.625 12.8765 112.531 11.6497 112.36 11.3047C112.152 10.9022 111.849 10.7105 111.452 10.7105H111.395C111.281 10.7105 111.224 10.6721 111.224 10.6146C111.224 10.538 111.338 10.4805 111.527 10.4805H111.565C111.565 10.4805 111.887 10.4805 112.303 10.5188C112.72 10.5571 113.136 10.5571 113.515 10.5571C113.894 10.5571 114.291 10.5571 114.708 10.5188C115.124 10.4996 115.37 10.4805 115.446 10.4805H115.484C115.692 10.4805 115.806 10.5188 115.806 10.6146C115.806 10.6913 115.749 10.7105 115.635 10.7105H115.579C115.181 10.7105 114.878 10.9022 114.651 11.3047C114.462 11.6497 114.386 12.8765 114.386 15.0041V16.0775C116.184 14.2182 117.528 12.7614 118.418 11.688C118.721 11.343 118.873 11.0938 118.873 10.998C118.873 10.8638 118.816 10.7872 118.721 10.7105C118.626 10.6338 118.57 10.6146 118.57 10.5955C118.57 10.5188 118.645 10.4805 118.797 10.4805C118.835 10.4805 119.024 10.4805 119.346 10.5188C119.668 10.5571 120.008 10.5571 120.33 10.5571C120.614 10.5571 120.936 10.5571 121.296 10.5188C121.655 10.4996 121.864 10.4805 121.921 10.4805C122.167 10.4805 122.299 10.5188 122.299 10.6146C122.299 10.6913 122.223 10.7105 122.091 10.7105C121.561 10.7105 120.955 10.9788 120.255 11.4964C119.857 11.8031 119.157 12.4548 118.172 13.4323C117.188 14.4099 116.393 15.2341 115.768 15.9242C116.336 16.5759 117.282 17.5726 118.664 18.9143C120.027 20.2561 121.031 21.157 121.655 21.6362C122.394 22.192 122.943 22.4796 123.321 22.4796C123.435 22.4796 123.492 22.5179 123.492 22.5946C123.492 22.6712 123.397 22.7287 123.17 22.7287C123.094 22.7287 122.829 22.7288 122.318 22.6904C121.826 22.6712 121.39 22.6521 121.012 22.6521C120.69 22.6521 120.387 22.6521 120.084 22.6712C119.781 22.6712 119.554 22.7096 119.365 22.7096C119.175 22.7096 119.081 22.7287 119.043 22.7287C118.91 22.7287 118.835 22.6904 118.835 22.5946C118.835 22.5562 118.873 22.4987 118.967 22.4412C119.043 22.3837 119.1 22.3071 119.1 22.192C119.1 22.0387 118.948 21.7895 118.664 21.4637C117.812 20.4669 116.374 18.9718 114.367 16.9592V18.2051C114.367 20.3328 114.462 21.5595 114.632 21.9045C114.84 22.3071 115.143 22.4987 115.56 22.4987H115.616C115.73 22.4987 115.787 22.5371 115.787 22.6137C115.787 22.6904 115.673 22.7479 115.465 22.7479H115.427C115.427 22.7479 115.105 22.7479 114.689 22.7096C114.272 22.6904 113.875 22.6712 113.496 22.6712" fill="#CEAA63"/>
<path d="M129.957 22.6712C129.567 22.6712 129.139 22.6712 128.71 22.7096C128.282 22.7287 128.029 22.7479 127.951 22.7479H127.854C127.659 22.7479 127.581 22.7096 127.581 22.6137C127.581 22.5371 127.639 22.4987 127.756 22.4987H127.815C128.224 22.4987 128.535 22.3071 128.749 21.9045C128.944 21.5595 129.022 20.3328 129.022 18.2051V15.0041C129.022 12.8765 128.925 11.6497 128.749 11.3047C128.535 10.9022 128.224 10.7105 127.815 10.7105H127.756C127.639 10.7105 127.581 10.6721 127.581 10.6146C127.581 10.538 127.698 10.4805 127.893 10.4805H127.932C127.932 10.4805 128.263 10.4805 128.691 10.5188C129.119 10.5571 129.548 10.5571 129.937 10.5571C130.327 10.5571 130.736 10.5571 131.164 10.5188C131.592 10.4996 131.845 10.4805 131.923 10.4805H131.962C132.176 10.4805 132.293 10.5188 132.293 10.6146C132.293 10.6913 132.235 10.7105 132.118 10.7105H132.06C131.651 10.7105 131.339 10.9022 131.125 11.3047C130.93 11.6497 130.852 12.8765 130.852 15.0041V15.7708C131.32 15.7708 132.449 15.79 134.221 15.79C135.993 15.79 136.967 15.79 137.414 15.7708V15.0041C137.414 12.8765 137.317 11.6497 137.142 11.3047C136.928 10.9022 136.616 10.7105 136.207 10.7105H136.149C136.032 10.7105 135.974 10.6721 135.974 10.6146C135.974 10.538 136.071 10.4805 136.285 10.4805H136.324C136.324 10.4805 136.655 10.4805 137.083 10.5188C137.512 10.5571 137.94 10.5571 138.33 10.5571C138.719 10.5571 139.128 10.5571 139.556 10.5188C139.985 10.4996 140.238 10.4805 140.296 10.4805H140.335C140.549 10.4805 140.666 10.5188 140.666 10.6146C140.666 10.6913 140.608 10.7105 140.491 10.7105H140.433C140.024 10.7105 139.712 10.9022 139.498 11.3047C139.303 11.6497 139.225 12.8765 139.225 15.0041V18.2051C139.225 20.3328 139.323 21.5595 139.498 21.9045C139.712 22.3071 140.024 22.4987 140.433 22.4987H140.491C140.608 22.4987 140.666 22.5371 140.666 22.6137C140.666 22.6904 140.569 22.7479 140.335 22.7479H140.296C140.296 22.7479 139.985 22.7479 139.556 22.7096C139.128 22.6904 138.719 22.6712 138.33 22.6712C137.94 22.6712 137.512 22.6712 137.083 22.7096C136.655 22.7287 136.402 22.7479 136.344 22.7479H136.227C136.032 22.7479 135.954 22.7096 135.954 22.6137C135.954 22.5371 136.012 22.4987 136.129 22.4987H136.188C136.597 22.4987 136.908 22.3071 137.122 21.9045C137.317 21.5595 137.395 20.3328 137.395 18.2051V16.6525C136.85 16.6525 135.779 16.6334 134.182 16.6334C132.488 16.6334 131.359 16.6334 130.833 16.6525V18.2051C130.833 20.3328 130.93 21.5595 131.106 21.9045C131.32 22.3071 131.631 22.4987 132.04 22.4987H132.099C132.215 22.4987 132.274 22.5371 132.274 22.6137C132.274 22.6904 132.157 22.7479 131.943 22.7479H131.904C131.904 22.7479 131.573 22.7479 131.144 22.7096C130.716 22.6904 130.307 22.6712 129.918 22.6712" fill="#CEAA63"/>
<path d="M148.905 10.4993C149.393 10.4993 149.919 10.5557 150.482 10.6874C151.045 10.8191 151.383 10.8756 151.496 10.8756C151.759 10.8756 151.965 10.7815 152.116 10.6122C151.928 10.9885 151.796 11.4588 151.759 12.0421C151.721 12.4937 151.703 12.9641 151.703 13.4344C151.703 13.5097 151.665 13.5661 151.571 13.5661C151.496 13.5661 151.458 13.5285 151.458 13.4344C151.458 12.9829 151.289 12.5501 150.951 12.1738C150.369 11.4965 149.637 11.1578 148.717 11.1578C148.191 11.1578 147.759 11.3083 147.421 11.5906C147.083 11.8728 146.914 12.2679 146.914 12.7571C146.914 13.2463 147.102 13.679 147.459 14.0741C147.816 14.4693 148.417 14.9396 149.243 15.4853C151.139 16.7271 152.078 18.063 152.078 19.4553C152.078 20.4148 151.721 21.2051 150.989 21.826C150.275 22.4469 149.374 22.7479 148.341 22.7479C147.722 22.7479 147.102 22.635 146.483 22.4092C145.863 22.1835 145.487 22.0706 145.375 22.0706C145.093 22.0706 144.887 22.1458 144.755 22.2775C144.98 21.7319 145.149 21.2615 145.225 20.8288C145.318 20.2267 145.375 19.6811 145.375 19.1919C145.375 19.1166 145.412 19.0602 145.506 19.0602C145.6 19.0602 145.638 19.0978 145.638 19.1919C145.638 19.7563 145.769 20.2643 146.051 20.6971C146.276 21.0357 146.595 21.3556 147.027 21.619C147.459 21.8824 147.947 22.0141 148.51 22.0141C149.074 22.0141 149.562 21.8448 149.919 21.5249C150.275 21.2051 150.463 20.7723 150.463 20.2455C150.463 19.6622 150.257 19.1354 149.825 18.6462C149.393 18.157 148.773 17.649 147.966 17.1222C147.046 16.5201 146.37 15.9368 145.957 15.3724C145.544 14.8079 145.318 14.1682 145.318 13.4156C145.318 12.5125 145.675 11.7975 146.389 11.2707C147.102 10.7439 147.947 10.4805 148.942 10.4805" fill="#CEAA63"/>
<path d="M159.084 22.6712C158.746 22.6712 158.374 22.6712 158.003 22.7096C157.631 22.7287 157.411 22.7479 157.344 22.7479H157.259C157.09 22.7479 157.022 22.7096 157.022 22.6137C157.022 22.5371 157.073 22.4987 157.175 22.4987H157.225C157.58 22.4987 157.85 22.3071 158.036 21.9045C158.205 21.5595 158.273 20.3328 158.273 18.2051V15.0041C158.273 12.8765 158.188 11.6497 158.036 11.3047C157.85 10.9022 157.58 10.7105 157.225 10.7105H157.175C157.073 10.7105 157.022 10.6721 157.022 10.6146C157.022 10.538 157.124 10.4805 157.293 10.4805H157.327C157.327 10.4805 157.614 10.4805 157.986 10.5188C158.357 10.5571 158.729 10.5571 159.067 10.5571C159.405 10.5571 159.76 10.5571 160.132 10.5188C160.503 10.4996 160.723 10.4805 160.791 10.4805H160.824C161.01 10.4805 161.112 10.5188 161.112 10.6146C161.112 10.6913 161.061 10.7105 160.96 10.7105H160.909C160.554 10.7105 160.284 10.9022 160.081 11.3047C159.912 11.6497 159.844 12.8765 159.844 15.0041V18.2051C159.844 20.3328 159.929 21.5595 160.081 21.9045C160.267 22.3071 160.537 22.4987 160.909 22.4987H160.96C161.061 22.4987 161.112 22.5371 161.112 22.6137C161.112 22.6904 161.01 22.7479 160.824 22.7479H160.791C160.791 22.7479 160.503 22.7479 160.132 22.7096C159.76 22.6904 159.405 22.6712 159.067 22.6712" fill="#CEAA63"/>
<path d="M176.72 11.5314C176.105 12.1238 174.816 13.8053 172.854 16.5951V18.2193C172.854 20.3403 172.953 21.5632 173.131 21.9072C173.349 22.3084 173.666 22.4995 174.083 22.4995H174.142C174.261 22.4995 174.321 22.5377 174.321 22.6142C174.321 22.6906 174.222 22.7479 174.004 22.7479H173.964C173.964 22.7479 173.627 22.7479 173.191 22.7097C172.754 22.6715 172.338 22.6715 171.942 22.6715C171.545 22.6715 171.109 22.6715 170.673 22.7097C170.237 22.7479 169.979 22.7479 169.899 22.7479H169.8C169.602 22.7479 169.523 22.7097 169.523 22.6142C169.523 22.5377 169.582 22.4995 169.701 22.4995H169.761C170.177 22.4995 170.494 22.3084 170.712 21.9072C170.911 21.5632 170.99 20.3403 170.99 18.2193V16.6524C168.968 13.8817 167.6 12.1811 166.866 11.4932C166.291 10.9964 165.815 10.7289 165.399 10.7289C165.26 10.7289 165.201 10.6907 165.201 10.6333C165.201 10.5569 165.32 10.4996 165.558 10.4996C165.597 10.4996 165.855 10.4996 166.37 10.5378C166.886 10.5569 167.382 10.576 167.857 10.576C168.254 10.576 168.67 10.576 169.126 10.5378C169.582 10.4996 169.86 10.4996 169.919 10.4996C170.118 10.4996 170.217 10.5378 170.217 10.6333C170.217 10.6333 170.098 10.6907 169.86 10.7671C169.622 10.8435 169.503 10.9773 169.483 11.1684C169.483 11.3594 169.622 11.7034 169.919 12.162C170.534 13.0792 171.347 14.2448 172.358 15.6015C173.429 14.0919 174.202 12.9454 174.638 12.1811C174.896 11.7798 175.034 11.4359 175.034 11.1875C175.034 10.9773 174.896 10.8435 174.678 10.7671C174.46 10.6907 174.36 10.6524 174.36 10.6142C174.36 10.5378 174.46 10.4805 174.658 10.4805C174.737 10.4805 174.955 10.4805 175.272 10.5187C175.59 10.5378 175.907 10.5569 176.244 10.5569C176.64 10.5569 176.997 10.5569 177.334 10.5187C177.671 10.4805 177.85 10.4805 177.909 10.4805C178.147 10.4805 178.286 10.5378 178.286 10.6333C178.286 10.6907 178.226 10.7098 178.088 10.7098C177.671 10.7098 177.176 10.9773 176.64 11.4932" fill="#CEAA63"/>
<path d="M184.45 10.4805H184.51C184.51 10.4805 184.849 10.4805 185.248 10.5189C185.667 10.5574 186.006 10.5574 186.285 10.5574C186.963 10.5574 187.362 10.5381 187.502 10.4997C187.741 11.3842 188.539 13.3839 189.935 16.4796C191.371 19.6714 192.249 21.4596 192.588 21.8634C192.927 22.3057 193.286 22.5172 193.645 22.5172C193.765 22.5172 193.825 22.5556 193.825 22.5941C193.825 22.6902 193.745 22.7479 193.566 22.7479C193.566 22.7479 193.306 22.7479 192.848 22.7095C192.389 22.671 191.95 22.671 191.511 22.671C191.132 22.671 190.673 22.671 190.135 22.7095C189.596 22.7287 189.297 22.7479 189.277 22.7479C189.117 22.7479 189.038 22.7095 189.038 22.6133C189.038 22.5364 189.097 22.498 189.197 22.498C189.696 22.498 189.935 22.2288 189.935 21.6904C189.935 21.2674 189.496 20.056 188.619 18.0755C188.08 18.0563 187.183 18.0371 185.926 18.0371C184.849 18.0371 184.091 18.0371 183.692 18.0563C182.774 20.1906 182.315 21.4212 182.315 21.7481C182.315 22.248 182.595 22.498 183.173 22.498C183.273 22.498 183.333 22.5364 183.333 22.5941C183.333 22.6902 183.253 22.7479 183.073 22.7479C182.994 22.7479 182.734 22.7479 182.335 22.7095C181.936 22.671 181.577 22.671 181.298 22.671C180.979 22.671 180.62 22.671 180.201 22.7095C179.802 22.7287 179.563 22.7479 179.463 22.7479C179.224 22.7479 179.104 22.6902 179.104 22.5941C179.104 22.5172 179.164 22.498 179.303 22.498C179.722 22.498 180.201 22.1326 180.74 21.4212C181.198 20.7674 182.016 19.21 183.233 16.7296C184.35 14.4414 185.148 12.7301 185.627 11.5765C185.308 11.0189 184.869 10.7304 184.33 10.7304C184.21 10.7304 184.151 10.692 184.151 10.6343C184.151 10.5381 184.25 10.4805 184.47 10.4805M185.946 17.2487C187.123 17.2487 187.881 17.2487 188.24 17.2295C187.382 15.1913 186.704 13.6723 186.165 12.6532L184.051 17.2295C184.43 17.2295 185.048 17.2487 185.926 17.2487" fill="#CEAA63"/>
<path d="M200.289 22.6712C199.9 22.6712 199.471 22.6712 199.043 22.7096C198.615 22.7287 198.361 22.7479 198.284 22.7479H198.186C197.991 22.7479 197.914 22.7096 197.914 22.6137C197.914 22.5371 197.972 22.4987 198.089 22.4987H198.147C198.556 22.4987 198.868 22.3071 199.082 21.9045C199.277 21.5595 199.355 20.3328 199.355 18.2051V15.0041C199.355 12.8765 199.257 11.6497 199.082 11.3047C198.868 10.9022 198.556 10.7105 198.147 10.7105H198.089C197.972 10.7105 197.914 10.6721 197.914 10.6146C197.914 10.538 198.03 10.4805 198.225 10.4805H198.264C198.264 10.4805 198.595 10.4805 199.023 10.5188C199.452 10.5571 199.88 10.5571 200.27 10.5571C200.659 10.5571 201.068 10.5571 201.496 10.5188C201.925 10.4996 202.178 10.4805 202.256 10.4805H202.295C202.509 10.4805 202.626 10.5188 202.626 10.6146C202.626 10.6913 202.567 10.7105 202.451 10.7105H202.392C201.983 10.7105 201.672 10.9022 201.458 11.3047C201.263 11.6497 201.185 12.8765 201.185 15.0041V15.7708C201.652 15.7708 202.782 15.79 204.554 15.79C206.326 15.79 207.299 15.79 207.747 15.7708V15.0041C207.747 12.8765 207.65 11.6497 207.474 11.3047C207.26 10.9022 206.949 10.7105 206.54 10.7105H206.481C206.364 10.7105 206.306 10.6721 206.306 10.6146C206.306 10.538 206.403 10.4805 206.618 10.4805H206.657C206.657 10.4805 206.988 10.4805 207.416 10.5188C207.844 10.5571 208.273 10.5571 208.662 10.5571C209.052 10.5571 209.461 10.5571 209.889 10.5188C210.317 10.4996 210.57 10.4805 210.629 10.4805H210.668C210.882 10.4805 210.999 10.5188 210.999 10.6146C210.999 10.6913 210.94 10.7105 210.824 10.7105H210.765C210.356 10.7105 210.045 10.9022 209.831 11.3047C209.636 11.6497 209.558 12.8765 209.558 15.0041V18.2051C209.558 20.3328 209.655 21.5595 209.831 21.9045C210.045 22.3071 210.356 22.4987 210.765 22.4987H210.824C210.94 22.4987 210.999 22.5371 210.999 22.6137C210.999 22.6904 210.901 22.7479 210.668 22.7479H210.629C210.629 22.7479 210.317 22.7479 209.889 22.7096C209.461 22.6904 209.052 22.6712 208.662 22.6712C208.273 22.6712 207.844 22.6712 207.416 22.7096C206.988 22.7287 206.734 22.7479 206.676 22.7479H206.559C206.364 22.7479 206.287 22.7096 206.287 22.6137C206.287 22.5371 206.345 22.4987 206.462 22.4987H206.52C206.929 22.4987 207.241 22.3071 207.455 21.9045C207.65 21.5595 207.728 20.3328 207.728 18.2051V16.6525C207.182 16.6525 206.111 16.6334 204.515 16.6334C202.821 16.6334 201.691 16.6334 201.165 16.6525V18.2051C201.165 20.3328 201.263 21.5595 201.438 21.9045C201.652 22.3071 201.964 22.4987 202.373 22.4987H202.431C202.548 22.4987 202.606 22.5371 202.606 22.6137C202.606 22.6904 202.49 22.7479 202.275 22.7479H202.236C202.236 22.7479 201.905 22.7479 201.477 22.7096C201.049 22.6904 200.64 22.6712 200.25 22.6712" fill="#CEAA63"/>
<path d="M68.401 30.1282C68.9434 30.1282 69.5276 30.1846 70.1535 30.3163C70.7794 30.448 71.1549 30.5045 71.2801 30.5045C71.5722 30.5045 71.8017 30.4104 71.9686 30.2411C71.76 30.6174 71.6139 31.0878 71.5722 31.671C71.5305 32.1226 71.5096 32.593 71.5096 33.0633C71.5096 33.1386 71.4679 33.1951 71.3636 33.1951C71.2801 33.1951 71.2384 33.1574 71.2384 33.0633C71.2384 32.6118 71.0506 32.179 70.6751 31.8027C70.0283 31.1254 69.2147 30.7867 68.1924 30.7867C67.6082 30.7867 67.1284 30.9372 66.7528 31.2195C66.3773 31.5017 66.1895 31.8968 66.1895 32.386C66.1895 32.8752 66.3982 33.3079 66.7946 33.7031C67.191 34.0982 67.8586 34.5685 68.7765 35.1142C70.8837 36.356 71.9269 37.673 71.9269 39.0842C71.9269 40.0437 71.5305 40.834 70.7168 41.4549C69.924 42.0758 68.9226 42.3768 67.7751 42.3768C67.0866 42.3768 66.3982 42.2639 65.7097 42.0382C65.0212 41.8124 64.6039 41.6995 64.4788 41.6995C64.1658 41.6995 63.9363 41.7747 63.7903 41.9064C64.0406 41.3608 64.2284 40.8904 64.3119 40.4577C64.4162 39.8556 64.4788 39.31 64.4788 38.8208C64.4788 38.7455 64.5205 38.6891 64.6248 38.6891C64.7291 38.6891 64.7708 38.7267 64.7708 38.8208C64.7708 39.3852 64.9169 39.8932 65.2298 40.326C65.4802 40.6646 65.8349 40.9845 66.3147 41.2479C66.7946 41.5113 67.337 41.643 67.9629 41.643C68.5888 41.643 69.1312 41.4737 69.5276 41.1538C69.924 40.834 70.1326 40.4012 70.1326 39.8744C70.1326 39.2911 69.9031 38.7643 69.4233 38.2751C68.9434 37.7859 68.255 37.2779 67.3579 36.7511C66.3356 36.149 65.5845 35.5658 65.1255 35.0013C64.6665 34.4368 64.4162 33.7971 64.4162 33.0445C64.4162 32.1414 64.8126 31.4264 65.6054 30.8996C66.3982 30.3728 67.337 30.1094 68.4427 30.1094" fill="#CEAA63"/>
<path d="M84.1126 42.3143H84.1318C85.3189 42.3143 86.2379 41.9341 86.9272 41.1938C87.425 40.6536 87.7313 40.0734 87.8271 39.4732C87.8653 39.3131 87.8845 39.2331 87.9228 39.2331C88.0185 39.2331 88.0568 39.2931 88.0568 39.4331C88.0568 40.5536 87.8653 41.3739 87.5016 41.8741C86.8314 42.7545 85.5486 43.1947 83.634 43.1947C81.7193 43.1947 80.0727 42.5944 78.7899 41.3939C77.5071 40.1934 76.8752 38.6328 76.8752 36.692C76.8752 34.7512 77.5262 33.1506 78.8473 31.9301C80.1684 30.7096 81.7959 30.1094 83.768 30.1094C84.5913 30.1094 85.3954 30.2294 86.2187 30.4695C87.0229 30.7096 87.4824 30.8297 87.5399 30.8297C87.8653 30.8297 88.1143 30.7496 88.3249 30.5696C88.1143 30.9297 87.9611 31.4699 87.8462 32.1702C87.7313 32.8505 87.6739 33.4907 87.6739 34.091C87.6739 34.231 87.6164 34.2911 87.5207 34.2911C87.4441 34.2911 87.425 34.211 87.425 34.031V33.9309C87.425 33.1306 87.0803 32.4103 86.4102 31.8101C85.7209 31.2098 84.821 30.9097 83.6914 30.9097C82.2746 30.9097 81.1641 31.4099 80.3599 32.4103C79.5558 33.4107 79.1537 34.7112 79.1537 36.3319V36.3919C79.1537 38.1926 79.6132 39.6132 80.5322 40.7137C81.4513 41.7941 82.6575 42.3343 84.1509 42.3343" fill="#CEAA63"/>
<path d="M94.1243 42.3C93.7099 42.3 93.254 42.3 92.7982 42.3384C92.3424 42.3576 92.073 42.3768 91.9901 42.3768H91.8865C91.6793 42.3768 91.5964 42.3384 91.5964 42.2424C91.5964 42.1656 91.6586 42.1464 91.7829 42.1464H91.8451C92.2802 42.1464 92.6117 41.9545 92.8396 41.5513C93.0468 41.2058 93.1297 39.9771 93.1297 37.8461V34.6401C93.1297 32.5091 93.0261 31.2804 92.8396 30.9349C92.6117 30.5317 92.2802 30.3397 91.8451 30.3397H91.7829C91.6586 30.3397 91.5964 30.3014 91.5964 30.2438C91.5964 30.167 91.7208 30.1094 91.928 30.1094H91.9694C91.9694 30.1094 92.3216 30.1094 92.7775 30.1478C93.2333 30.1862 93.6892 30.1862 94.1036 30.1862C94.518 30.1862 94.9531 30.1862 95.4089 30.1478C95.8648 30.1286 96.1341 30.1094 96.217 30.1094H96.2584C96.4864 30.1094 96.6107 30.1478 96.6107 30.2438C96.6107 30.3206 96.5485 30.3397 96.4242 30.3397H96.362C95.9269 30.3397 95.5954 30.5317 95.3468 30.9349C95.1396 31.2804 95.0567 32.5091 95.0567 34.6401V35.408C95.554 35.408 96.7557 35.4272 98.6412 35.4272C100.527 35.4272 101.563 35.4272 102.039 35.408V34.6401C102.039 32.5091 101.936 31.2804 101.749 30.9349C101.521 30.5317 101.19 30.3397 100.755 30.3397H100.693C100.568 30.3397 100.506 30.3014 100.506 30.2438C100.506 30.167 100.61 30.1094 100.838 30.1094H100.879C100.879 30.1094 101.231 30.1094 101.687 30.1478C102.143 30.1862 102.599 30.1862 103.013 30.1862C103.428 30.1862 103.863 30.1862 104.319 30.1478C104.774 30.1286 105.044 30.1094 105.106 30.1094H105.147C105.375 30.1094 105.5 30.1478 105.5 30.2438C105.5 30.3206 105.437 30.3397 105.313 30.3397H105.251C104.816 30.3397 104.484 30.5317 104.256 30.9349C104.049 31.2804 103.966 32.5091 103.966 34.6401V37.8461C103.966 39.9771 104.07 41.2058 104.256 41.5513C104.484 41.9545 104.816 42.1464 105.251 42.1464H105.313C105.437 42.1464 105.5 42.1848 105.5 42.2424C105.5 42.3192 105.396 42.3768 105.147 42.3768H105.106C105.106 42.3768 104.774 42.3768 104.319 42.3384C103.863 42.3 103.428 42.3 103.013 42.3C102.599 42.3 102.143 42.3 101.687 42.3384C101.231 42.3576 100.962 42.3768 100.9 42.3768H100.775C100.568 42.3768 100.485 42.3384 100.485 42.2424C100.485 42.1656 100.547 42.1464 100.672 42.1464H100.734C101.169 42.1464 101.501 41.9545 101.729 41.5513C101.936 41.2058 102.019 39.9771 102.019 37.8461V36.2911C101.438 36.2911 100.299 36.2719 98.5998 36.2719C96.7972 36.2719 95.5954 36.2719 95.036 36.2911V37.8461C95.036 39.9771 95.1396 41.2058 95.326 41.5513C95.554 41.9545 95.8855 42.1464 96.3413 42.1464H96.4035C96.5278 42.1464 96.59 42.1848 96.59 42.2424C96.59 42.3192 96.4656 42.3768 96.2377 42.3768H96.1963C96.1963 42.3768 95.844 42.3768 95.3882 42.3384C94.9324 42.3 94.4972 42.3 94.0828 42.3" fill="#CEAA63"/>
<path d="M109.589 36.5827C109.589 34.7219 110.235 33.1778 111.529 31.9504C112.822 30.7231 114.343 30.1094 116.131 30.1094C117.919 30.1094 119.441 30.7231 120.734 31.9306C122.027 33.1382 122.674 34.7021 122.674 36.5827C122.674 38.4634 122.027 39.9877 120.734 41.2744C119.441 42.5612 117.9 43.1947 116.131 43.1947C114.362 43.1947 112.803 42.581 111.529 41.3536C110.254 40.1262 109.627 38.5425 109.627 36.6025M111.833 36.0086C111.833 37.8299 112.289 39.3542 113.183 40.6014C114.096 41.8485 115.237 42.4622 116.645 42.4622C117.862 42.4622 118.794 41.9871 119.479 41.0171C120.163 40.0471 120.487 38.7999 120.487 37.2558C120.487 35.5335 120.03 34.0488 119.098 32.7621C118.166 31.4753 117.044 30.8418 115.713 30.8418C114.534 30.8418 113.583 31.317 112.879 32.2672C112.175 33.2174 111.833 34.4645 111.833 36.0086Z" fill="#CEAA63"/>
<path d="M127.581 36.5827C127.581 34.7219 128.187 33.1778 129.4 31.9504C130.612 30.7231 132.039 30.1094 133.715 30.1094C135.391 30.1094 136.817 30.7231 138.03 31.9306C139.242 33.1382 139.849 34.7021 139.849 36.5827C139.849 38.4634 139.242 39.9877 138.03 41.2744C136.817 42.5612 135.373 43.1947 133.715 43.1947C132.057 43.1947 130.594 42.581 129.4 41.3536C128.205 40.1262 127.617 38.5425 127.617 36.6025M129.685 36.0086C129.685 37.8299 130.113 39.3542 130.951 40.6014C131.807 41.8485 132.877 42.4622 134.196 42.4622C135.337 42.4622 136.211 41.9871 136.853 41.0171C137.495 40.0471 137.798 38.7999 137.798 37.2558C137.798 35.5335 137.37 34.0488 136.496 32.7621C135.623 31.4753 134.571 30.8418 133.323 30.8418C132.217 30.8418 131.325 31.317 130.666 32.2672C130.006 33.2174 129.685 34.4645 129.685 36.0086Z" fill="#CEAA63"/>
<path d="M147.137 39.5444C147.137 39.9846 147.175 40.3291 147.232 40.5587C147.307 40.7884 147.44 40.9606 147.629 41.1137C147.951 41.3434 148.519 41.4773 149.314 41.4773C150.166 41.4773 150.81 41.3242 151.264 41.018C151.415 40.9223 151.548 40.8075 151.661 40.6735C151.775 40.5396 151.87 40.4439 151.926 40.3482C151.983 40.2716 152.021 40.2334 152.021 40.2334C152.078 40.2334 152.116 40.2716 152.116 40.3099C152.116 40.4439 152.059 40.6544 151.926 40.9606C151.794 41.2668 151.643 41.5156 151.472 41.7261C151.112 42.1663 150.507 42.3768 149.636 42.3768C149.333 42.3768 148.784 42.3577 147.97 42.3003C147.175 42.2429 146.588 42.2237 146.209 42.2237C145.868 42.2237 145.471 42.2237 145.054 42.2811C144.638 42.3194 144.373 42.3385 144.297 42.3385H144.259C144.051 42.3385 143.938 42.3003 143.938 42.2046C143.938 42.128 143.994 42.1089 144.108 42.1089H144.165C144.562 42.1089 144.865 41.8984 145.073 41.4965C145.263 41.152 145.338 39.9272 145.338 37.8028V34.6259C145.338 32.5016 145.244 31.2768 145.073 30.9323C144.865 30.5304 144.562 30.339 144.165 30.339H144.108C143.994 30.339 143.938 30.3008 143.938 30.2433C143.938 30.1668 144.032 30.1094 144.259 30.1094H144.297C144.297 30.1094 144.619 30.1094 145.036 30.1477C145.452 30.1859 145.868 30.1859 146.247 30.1859C146.626 30.1859 147.023 30.1859 147.44 30.1477C147.856 30.1285 148.102 30.1094 148.178 30.1094H148.216C148.424 30.1094 148.519 30.1477 148.519 30.2433C148.519 30.3199 148.462 30.339 148.348 30.339H148.292C147.894 30.339 147.591 30.5304 147.383 30.9323C147.194 31.2768 147.118 32.5016 147.118 34.6259V39.5635L147.137 39.5444Z" fill="#CEAA63"/>
<path d="M160.815 30.1282C161.358 30.1282 161.942 30.1846 162.568 30.3163C163.194 30.448 163.569 30.5045 163.694 30.5045C163.986 30.5045 164.216 30.4104 164.383 30.2411C164.174 30.6174 164.028 31.0878 163.986 31.671C163.945 32.1226 163.924 32.593 163.924 33.0633C163.924 33.1386 163.882 33.1951 163.778 33.1951C163.694 33.1951 163.653 33.1574 163.653 33.0633C163.653 32.6118 163.465 32.179 163.089 31.8027C162.443 31.1254 161.629 30.7867 160.607 30.7867C160.023 30.7867 159.543 30.9372 159.167 31.2195C158.792 31.5017 158.604 31.8968 158.604 32.386C158.604 32.8752 158.812 33.3079 159.209 33.7031C159.605 34.0982 160.273 34.5685 161.191 35.1142C163.298 36.356 164.341 37.673 164.341 39.0842C164.341 40.0437 163.945 40.834 163.131 41.4549C162.338 42.0758 161.337 42.3768 160.189 42.3768C159.501 42.3768 158.812 42.2639 158.124 42.0382C157.436 41.8124 157.018 41.6995 156.893 41.6995C156.58 41.6995 156.351 41.7747 156.205 41.9064C156.455 41.3608 156.643 40.8904 156.726 40.4577C156.83 39.8556 156.893 39.31 156.893 38.8208C156.893 38.7455 156.935 38.6891 157.039 38.6891C157.143 38.6891 157.185 38.7267 157.185 38.8208C157.185 39.3852 157.331 39.8932 157.644 40.326C157.894 40.6646 158.249 40.9845 158.729 41.2479C159.209 41.5113 159.751 41.643 160.377 41.643C161.003 41.643 161.546 41.4737 161.942 41.1538C162.338 40.834 162.547 40.4012 162.547 39.8744C162.547 39.2911 162.317 38.7643 161.838 38.2751C161.358 37.7859 160.669 37.2779 159.772 36.7511C158.75 36.149 157.999 35.5658 157.54 35.0013C157.081 34.4368 156.83 33.7971 156.83 33.0445C156.83 32.1414 157.227 31.4264 158.02 30.8996C158.812 30.3728 159.751 30.1094 160.857 30.1094" fill="#CEAA63"/>
<defs>
<clipPath id="clip0_31_437">
<rect width="61.6726" height="70.3334" fill="white" transform="translate(0 0.666992)"/>
</clipPath>
</defs>
</svg>
